<svg id="Layer_1" enable-background="new 0 0 512.007 512.007" height="512" viewBox="0 0 512.007 512.007" width="512" xmlns="http://www.w3.org/2000/svg"><g><g clip-rule="evenodd" fill-rule="evenodd"><circle cx="256.004" cy="256.004" fill="#b278d3" r="30"/><path d="m256.004 286.004c-16.568 0-30-13.432-30-30 0-16.569 13.432-30 30-30s30 13.432 30 30-13.432 30-30 30zm0-100c-38.66 0-70 31.34-70 70s31.34 70 70 70 70-31.34 70-70-31.34-70-70-70z" fill="#d1aee5"/><path d="m186.004 256.004c0-38.66 31.34-70 70-70s70 31.34 70 70-31.34 70-70 70-70-31.34-70-70zm70-130c-71.797 0-130 58.203-130 130s58.203 130 130 130 130-58.203 130-130-58.203-130-130-130z" fill="#c193dc"/><path d="m126.004 256.004c0-71.797 58.203-130 130-130s130 58.203 130 130-58.203 130-130 130-130-58.203-130-130zm11.052-118.948c-51.966 23.942-91.709 107.767-78.493 125.537 4.136 5.562 13.461 4.653 29.223-6.589-19.815 53.675 11.355 141.051 33.266 144.271 6.858 1.008 12.809-6.228 16.005-25.323 23.942 51.966 107.767 91.709 125.537 78.493 5.562-4.136 4.653-13.461-6.589-29.223 53.675 19.815 141.051-11.355 144.271-33.265 1.008-6.858-6.228-12.809-25.323-16.005 51.966-23.942 91.709-107.767 78.493-125.537-4.136-5.562-13.461-4.653-29.223 6.589 19.815-53.675-11.355-141.051-33.265-144.271-6.858-1.008-12.809 6.228-16.005 25.323-23.943-51.966-107.768-91.709-125.538-78.493-5.562 4.137-4.653 13.461 6.589 29.223-53.675-19.815-141.05 11.355-144.271 33.265-1.008 6.858 6.228 12.809 25.323 16.005z" fill="#b278d3"/></g><g><path d="m256.004 116.003c-20.715 0-40.675 4.43-59.323 13.167-5.002 2.343-7.156 8.297-4.813 13.298s8.299 7.156 13.298 4.813c15.974-7.483 33.078-11.278 50.839-11.278 66.168 0 120 53.832 120 120s-53.832 120-120 120-120-53.832-120-120c0-17.764 3.795-34.87 11.28-50.844 2.344-5.001.189-10.955-4.812-13.298-5.004-2.347-10.956-.189-13.298 4.812-8.739 18.649-13.171 38.61-13.171 59.33 0 77.196 62.804 140 140 140s140-62.804 140-140-62.804-140-140-140z"/><path d="m336.004 256.003c0-44.112-35.888-80-80-80s-80 35.888-80 80 35.888 80 80 80 80-35.887 80-80zm-140 0c0-33.084 26.916-60 60-60s60 26.916 60 60-26.916 60-60 60-60-26.916-60-60z"/><path d="m296.004 256.003c0-22.056-17.944-40-40-40s-40 17.944-40 40 17.944 40 40 40 40-17.944 40-40zm-60 0c0-11.028 8.972-20 20-20s20 8.972 20 20-8.972 20-20 20-20-8.971-20-20z"/><path d="m504.593 272.524c-5.337-1.429-10.817 1.737-12.247 7.071-11.221 41.882-51.814 82.37-86.41 98.29-1.813-2.153-4.166-4.073-7.093-5.756 38.369-28.742 66.309-82.765 67.142-111.227.138-4.712-.462-8.508-1.497-11.594 8.62-19.878 13.29-45.914 12.88-72.379-.475-30.681-7.664-59.576-20.243-81.363-2.762-4.782-8.877-6.421-13.66-3.66-4.783 2.762-6.422 8.877-3.66 13.66 21.68 37.55 21.605 94.883 8.401 130.602-2.805-.24-5.826.066-9.085.945 6.807-47.454-11.637-105.409-31.174-126.123-3.236-3.431-6.35-5.71-9.265-7.161-7.963-20.146-23.066-41.85-42.063-60.268-22.03-21.357-47.545-36.706-71.847-43.218-5.331-1.43-10.817 1.736-12.247 7.071-1.43 5.334 1.736 10.817 7.071 12.247 41.883 11.223 82.37 51.816 98.29 86.41-2.153 1.813-4.073 4.167-5.756 7.093-28.742-38.369-82.765-66.309-111.226-67.141-4.725-.141-8.524.457-11.609 1.49-19.875-8.617-45.894-13.288-72.364-12.874-30.681.475-59.576 7.664-81.363 20.243-4.783 2.762-6.422 8.877-3.66 13.66 1.853 3.208 5.213 5.002 8.67 5.002 1.696 0 3.416-.433 4.99-1.342 37.552-21.681 94.885-21.604 130.603-8.4-.24 2.804.066 5.826.945 9.085-47.454-6.806-105.412 11.637-126.125 31.173-3.431 3.236-5.71 6.35-7.16 9.265-20.146 7.963-41.85 23.066-60.267 42.063-21.357 22.03-36.706 47.545-43.218 71.847-1.43 5.334 1.736 10.817 7.071 12.247.866.232 1.737.344 2.594.344 4.416 0 8.456-2.947 9.653-7.415 11.223-41.883 51.817-82.37 86.411-98.29 1.813 2.153 4.166 4.072 7.092 5.756-38.369 28.742-66.309 82.765-67.141 111.227-.138 4.713.462 8.508 1.497 11.595-8.62 19.878-13.29 45.914-12.88 72.379.475 30.68 7.664 59.575 20.243 81.362 1.853 3.208 5.213 5.002 8.67 5.002 1.696 0 3.416-.433 4.99-1.342 4.783-2.762 6.422-8.877 3.66-13.66-21.681-37.552-21.605-94.884-8.4-130.602 2.805.24 5.826-.066 9.086-.946-6.808 47.455 11.636 105.411 31.172 126.125 3.237 3.432 6.351 5.711 9.266 7.161 7.963 20.146 23.066 41.85 42.063 60.266 22.03 21.358 47.546 36.707 71.847 43.218.867.232 1.737.344 2.594.344 4.415 0 8.456-2.947 9.653-7.415 1.43-5.335-1.736-10.817-7.071-12.247-41.883-11.223-82.371-51.816-98.29-86.41 2.153-1.813 4.072-4.166 5.756-7.093 28.742 38.369 82.765 66.309 111.227 67.142.456.013.902.02 1.341.02 4.104 0 7.482-.575 10.271-1.511 19.07 8.267 43.799 12.9 69.144 12.9 1.07 0 2.146-.009 3.218-.025 30.68-.475 59.575-7.664 81.362-20.243 4.783-2.762 6.422-8.877 3.66-13.66-2.761-4.781-8.877-6.422-13.66-3.66-37.55 21.681-94.883 21.606-130.603 8.4.24-2.804-.066-5.825-.944-9.084 47.449 6.799 105.411-11.639 126.124-31.174 3.431-3.236 5.709-6.35 7.16-9.265 20.145-7.962 41.849-23.066 60.267-42.064 21.358-22.03 36.707-47.546 43.218-71.847 1.427-5.334-1.739-10.816-7.074-12.246zm-129.975 129.428c-30.291 16.049-81.646 25.256-115.151 12.89-4.115-1.52-8.745-.179-11.409 3.31-2.664 3.487-2.743 8.305-.195 11.878 6.567 9.208 7.805 13.902 8.016 15.652-2.189.551-8.186.781-19.202-2.604-32.768-10.07-75.592-39.871-90.538-72.31-1.648-3.578-5.218-5.815-9.078-5.815-.439 0-.884.028-1.329.088-4.351.582-7.813 3.933-8.538 8.262-1.867 11.155-4.312 15.35-5.399 16.736-1.937-1.159-6.34-5.234-11.736-15.42-16.05-30.291-25.259-81.646-12.89-115.151 1.521-4.117.178-8.744-3.31-11.409-3.488-2.664-8.306-2.742-11.878-.195-9.209 6.568-13.903 7.805-15.653 8.016-.55-2.188-.782-8.183 2.604-19.201 10.07-32.769 39.871-75.593 72.31-90.539 3.986-1.836 6.309-6.058 5.728-10.407-.582-4.351-3.933-7.813-8.262-8.538-11.154-1.866-15.349-4.312-16.735-5.399 1.158-1.937 5.233-6.34 15.419-11.736 30.291-16.049 81.644-25.257 115.151-12.89 4.113 1.519 8.744.178 11.409-3.31 2.664-3.487 2.744-8.305.195-11.878-6.568-9.209-7.805-13.903-8.016-15.653 2.188-.552 8.185-.781 19.201 2.604 32.768 10.07 75.593 39.87 90.539 72.31 1.837 3.986 6.052 6.313 10.407 5.728 4.351-.582 7.813-3.933 8.538-8.262 1.867-11.155 4.312-15.349 5.399-16.735 1.937 1.158 6.34 5.233 11.737 15.42 16.049 30.291 25.259 81.645 12.89 115.15-1.521 4.117-.178 8.744 3.31 11.409 3.489 2.665 8.307 2.742 11.878.195 9.208-6.567 13.902-7.805 15.652-8.016.55 2.188.782 8.184-2.604 19.202-10.07 32.768-39.871 75.592-72.31 90.538-3.986 1.836-6.309 6.058-5.728 10.407.582 4.351 3.933 7.813 8.262 8.538 11.155 1.867 15.35 4.312 16.736 5.399-1.158 1.935-5.234 6.338-15.42 11.736z"/><path d="m164.082 174.076c2.561 0 5.122-.977 7.075-2.93 3.905-3.905 3.905-10.237 0-14.143-3.906-3.904-10.236-3.904-14.143 0l-.006.006c-3.905 3.905-3.902 10.234.003 14.14 1.953 1.951 4.511 2.927 7.071 2.927z"/></g></g></svg>